<svg width="146" height="24" viewBox="0 0 146 24" fill="none" xmlns="http://www.w3.org/2000/svg">
<g id="FuelOne logo" clip-path="url(#clip0_2272_9164)">
<g id="Group">
<path id="Vector" d="M125.907 1.52263C123.562 1.52263 122.038 2.46719 121.34 4.37205L118.764 11.3933L114.138 2.85026C113.822 1.94244 112.904 1.49115 111.396 1.50164L107.87 1.51214L99.7556 23.641H103.276C105.621 23.6515 107.146 22.6965 107.843 20.7969L110.43 13.7442L115.147 22.4184C115.598 23.2527 116.478 23.6673 117.782 23.6673C120.127 23.6673 121.652 22.7227 122.349 20.8179L129.428 1.52788H125.907V1.52263Z" fill="#FF4D00"/>
<path id="Vector_2" d="M139.796 18.4827L132.041 18.4722L133.244 15.1924H137.548C139.372 15.2029 140.607 14.3266 141.251 12.5792L142.211 9.95539L135.17 9.9449L136.335 6.76489H141.347C143.172 6.77538 144.406 5.90429 145.039 4.16735L145.995 1.55932L131.199 1.53833L123.079 23.683L135.133 23.6987C136.957 23.6987 138.192 22.8329 138.825 21.0959L139.78 18.4879L139.796 18.4827Z" fill="#FF4D00"/>
<path id="Vector_3" d="M101.891 4.02571C100.303 1.89521 97.6411 0.824707 93.9005 0.824707C91.3245 0.824707 88.8881 1.32322 86.5911 2.33075L97.8021 11.7291L84.1225 20.3246L80.661 16.8612L90.0687 11.2411L82.2173 5.007C79.7808 6.98008 78.0259 9.41494 76.9633 12.3273C75.7075 15.7487 75.8846 18.5194 77.4893 20.6394C79.0939 22.7595 81.745 23.8195 85.4319 23.8247C89.1188 23.8247 92.5535 22.7752 95.7359 20.6657C98.9184 18.5509 101.135 15.7855 102.391 12.3641C103.646 8.94266 103.48 6.16671 101.897 4.03621L101.891 4.02571Z" fill="#FF4D00"/>
</g>
<g id="Group_2">
<path id="Vector_4" d="M2.71548 23.2056C0.364883 23.2108 -0.461583 22.261 0.24145 20.3456L7.31471 1.05566L22.1106 1.07665L21.1553 3.68469C20.5167 5.42162 19.2877 6.29272 17.4631 6.28747H12.4506L11.286 9.46223L18.3271 9.47273L17.3665 12.0965C16.7225 13.8492 15.4935 14.7203 13.6635 14.715H9.35941L7.28788 20.3509C6.59558 22.2453 5.07144 23.1951 2.72085 23.2003L2.71548 23.2056Z" fill="#3D3935"/>
<path id="Vector_5" d="M65.5914 23.2895L56.5593 23.279C54.2141 23.279 53.3876 22.324 54.0853 20.4191L61.1585 1.12915H64.6791C67.0243 1.13965 67.8508 2.08945 67.1531 3.99431L61.9904 18.0682L69.7076 18.0787L68.7524 20.6868C68.1137 22.4237 67.0619 23.2948 65.5914 23.2895Z" fill="#3D3935"/>
<path id="Vector_6" d="M36.4663 23.2527L44.5861 1.10278L59.382 1.12377L58.4267 3.7318C57.7881 5.46874 56.5591 6.33984 54.7344 6.33459H49.722L48.5574 9.50935L55.5985 9.51985L54.6378 12.1436C53.9938 13.8963 52.7649 14.7674 50.9348 14.7621H46.6308L45.4286 18.0366L53.1835 18.0471L52.2282 20.6551C51.5896 22.3921 50.3606 23.2632 48.5359 23.2579L36.4824 23.2422L36.4663 23.2527Z" fill="#3D3935"/>
<path id="Vector_7" d="M36.8903 17.2444C36.1228 19.3329 34.5933 20.8809 32.2964 21.8937C29.9995 22.9012 27.6221 23.405 25.1695 23.3997C22.7169 23.3997 20.7098 22.8855 19.1535 21.8727C17.5971 20.8599 17.2054 19.3066 17.9674 17.2181L23.8869 1.07666H27.4074C29.7526 1.08716 30.5791 2.03696 29.8814 3.94182L25.3573 16.2788C24.9012 17.5277 25.4754 18.1522 27.0908 18.1522C28.7008 18.1522 29.7365 17.533 30.1927 16.2841L35.7633 1.0924H39.2838C41.629 1.1029 42.4555 2.0527 41.7578 3.95756L36.8849 17.2444H36.8903Z" fill="#3D3935"/>
</g>
</g>
<defs>
<clipPath id="clip0_2272_9164">
<rect width="146" height="23" fill="white" transform="translate(0 0.824707)"/>
</clipPath>
</defs>
</svg>
