<svg xmlns="http://www.w3.org/2000/svg" fill="#C41320" viewBox="0 0 77 32" height="32" width="77" version="1.1">
  <path d="M 77.05 0 L 0.001 0 L 7.41 32 C 22.965 21.864 37.914 31.605 38.516 31.976 C 38.516 31.976 54.088 21.864 69.642 32 L 77.05 0 Z">
    <title>batwing</title>
  </path>
  <path style="fill: #FFF" d="M 72.236 0 C 72.268 0.067 72.304 0.132 72.334 0.201 C 72.602 0.808 72.758 1.517 72.758 2.262 C 72.758 2.277 72.758 2.292 72.758 2.307 L 72.758 2.305 C 72.758 2.321 72.758 2.34 72.758 2.359 C 72.758 3.113 72.602 3.83 72.321 4.48 L 72.334 4.445 C 72.049 5.105 71.663 5.669 71.19 6.146 C 70.722 6.616 70.164 6.995 69.544 7.256 L 69.51 7.269 C 68.914 7.522 68.222 7.67 67.495 7.67 C 67.483 7.67 67.472 7.67 67.46 7.67 L 67.462 7.67 C 67.453 7.67 67.443 7.67 67.433 7.67 C 66.703 7.67 66.007 7.523 65.374 7.256 L 65.409 7.269 C 64.75 6.995 64.187 6.615 63.714 6.146 C 63.238 5.67 62.85 5.106 62.578 4.48 L 62.565 4.445 C 62.297 3.83 62.14 3.113 62.14 2.359 C 62.14 2.34 62.14 2.321 62.14 2.302 L 62.14 2.305 C 62.14 2.292 62.14 2.277 62.14 2.262 C 62.14 1.517 62.296 0.809 62.578 0.168 L 62.565 0.201 C 62.595 0.132 62.631 0.067 62.664 0 L 72.236 0 Z M 64.35 5.581 C 65.125 6.392 66.215 6.897 67.422 6.897 C 67.436 6.897 67.45 6.897 67.464 6.897 L 67.462 6.897 C 67.473 6.897 67.486 6.897 67.499 6.897 C 68.104 6.897 68.679 6.768 69.198 6.536 L 69.172 6.547 C 69.709 6.308 70.167 5.982 70.548 5.583 L 70.55 5.581 C 70.935 5.174 71.245 4.692 71.457 4.16 L 71.468 4.13 C 71.678 3.603 71.8 2.991 71.8 2.352 C 71.8 2.336 71.8 2.319 71.8 2.303 L 71.8 2.305 C 71.8 2.294 71.8 2.282 71.8 2.269 C 71.8 1.639 71.678 1.037 71.456 0.485 L 71.467 0.517 C 71.383 0.311 71.299 0.141 71.207 -0.023 L 71.219 0 L 69.717 0 C 69.864 0.266 69.95 0.584 69.95 0.922 C 69.95 0.945 69.95 0.969 69.949 0.992 L 69.949 0.989 C 69.953 1.029 69.955 1.075 69.955 1.121 C 69.955 1.555 69.774 1.947 69.483 2.225 L 69.482 2.226 C 69.167 2.486 68.768 2.656 68.332 2.691 L 68.325 2.691 L 70.09 5.452 L 69.059 5.452 L 67.38 2.763 L 66.363 2.763 L 66.363 5.452 L 65.404 5.452 L 65.404 0 L 63.681 0 C 63.601 0.14 63.518 0.31 63.445 0.485 L 63.433 0.516 C 63.223 1.035 63.101 1.636 63.101 2.266 C 63.101 2.279 63.101 2.292 63.101 2.305 L 63.101 2.303 C 63.101 2.317 63.101 2.334 63.101 2.351 C 63.101 2.99 63.223 3.601 63.445 4.161 L 63.433 4.128 C 63.655 4.691 63.965 5.173 64.352 5.582 L 64.35 5.58 L 64.35 5.581 Z M 67.979 1.954 C 68.168 1.943 68.343 1.9 68.504 1.829 L 68.494 1.833 C 68.644 1.767 68.767 1.661 68.852 1.529 L 68.854 1.526 C 68.94 1.376 68.99 1.197 68.99 1.006 C 68.99 0.985 68.989 0.965 68.988 0.944 L 68.988 0.947 C 68.989 0.934 68.989 0.919 68.989 0.904 C 68.989 0.736 68.944 0.578 68.866 0.441 L 68.868 0.446 C 68.79 0.325 68.685 0.228 68.561 0.162 L 68.557 0.16 C 68.43 0.094 68.282 0.046 68.126 0.026 L 68.119 0.025 C 68.048 0.014 67.978 0.007 67.908 0.001 L 66.362 0.001 L 66.362 1.976 L 67.364 1.976 C 67.581 1.976 67.785 1.969 67.978 1.955 L 67.979 1.954 Z">
    <title>rtm</title>
  </path>
</svg>