<svg width="92" height="18" viewBox="0 0 92 18" fill="none" xmlns="http://www.w3.org/2000/svg">
<g clip-path="url(#clip0_18503_1174)">
<path d="M45.5444 0.902832L41.228 11.4799L36.8457 0.902832H34.081L31.5781 17.0153H34.32L36.0026 6.12353L40.4678 17.0153H41.9943L46.4343 6.12834L48.1433 17.0153H50.9212L48.2082 0.902832H45.5444Z" fill="black"/>
<path d="M45.5444 0.902832L41.228 11.4799L36.8457 0.902832H34.081L31.5781 17.0153H34.32L36.0026 6.12353L40.4678 17.0153H41.9943L46.4343 6.12834L48.1433 17.0153H50.9212L48.2082 0.902832H45.5444Z" fill="black"/>
<path d="M6.87806 17.0152L6.88403 3.06822H0.355469V0.902832H16.4151V3.06822H9.75561L9.74839 17.0152H6.87806Z" fill="black"/>
<path d="M6.87806 17.0152L6.88403 3.06822H0.355469V0.902832H16.4151V3.06822H9.75561L9.74839 17.0152H6.87806Z" fill="black"/>
<path d="M57.54 17.0152L57.5496 0.902832H70.8806L70.8782 3.29879H60.2699L60.2675 7.59233H69.485L69.4826 9.7457H60.2675L60.2638 14.6673H70.8073L70.8049 17.0152H57.54Z" fill="black"/>
<path d="M57.54 17.0152L57.5496 0.902832H70.8806L70.8782 3.29879H60.2699L60.2675 7.59233H69.485L69.4826 9.7457H60.2675L60.2638 14.6673H70.8073L70.8049 17.0152H57.54Z" fill="black"/>
<path d="M21.7705 17.0152L21.7777 0.902832H24.5748L24.5484 17.0152H21.7705Z" fill="black"/>
<path d="M21.7705 17.0152L21.7777 0.902832H24.5748L24.5484 17.0152H21.7705Z" fill="black"/>
<path d="M75.7197 17.0152L81.7979 8.5339L76.3154 0.902832H79.8283L83.6474 6.29524L87.4642 0.902832H90.9855L85.4681 8.53511L91.5643 17.0152H88.0502L83.645 10.2681L79.235 17.0152H75.7197Z" fill="black"/>
<path d="M75.7197 17.0152L81.7979 8.5339L76.3154 0.902832H79.8283L83.6474 6.29524L87.4642 0.902832H90.9855L85.4681 8.53511L91.5643 17.0152H88.0502L83.645 10.2681L79.235 17.0152H75.7197Z" fill="black"/>
</g>
<defs>
<clipPath id="clip0_18503_1174">
<rect width="91.209" height="16.1124" fill="white" transform="translate(0.0644531 0.902832)"/>
</clipPath>
</defs>
</svg>
